<svg width="56" height="56" viewBox="0 0 56 56" fill="none" xmlns="http://www.w3.org/2000/svg">
<rect x="1.32031" y="1.5" width="53" height="53" rx="26.5" fill="#FFFFFE"/>
<rect x="1.32031" y="1.5" width="53" height="53" rx="26.5" stroke="#F45D48" stroke-width="2"/>
<path d="M26.6171 24.1056C26.4954 24.0361 26.3577 23.9998 26.2176 24.0002C26.0775 24.0007 25.94 24.038 25.8188 24.1083C25.6976 24.1786 25.597 24.2795 25.5271 24.4009C25.4572 24.5223 25.4203 24.6599 25.4203 24.8V31.2C25.4203 31.3401 25.4572 31.4777 25.5271 31.5991C25.597 31.7205 25.6976 31.8214 25.8188 31.8917C25.94 31.962 26.0775 31.9992 26.2176 31.9997C26.3577 32.0002 26.4954 31.9639 26.6171 31.8944L32.2171 28.6944C32.3394 28.6244 32.4411 28.5233 32.5119 28.4014C32.5826 28.2794 32.6198 28.141 32.6198 28C32.6198 27.859 32.5826 27.7206 32.5119 27.5986C32.4411 27.4767 32.3394 27.3756 32.2171 27.3056L26.6171 24.1056Z" fill="#F45D48"/>
</svg>
