<svg width="100" height="33" viewBox="0 0 100 33" fill="none" xmlns="http://www.w3.org/2000/svg">
<path d="M7.68 24.24C6.976 24.24 6.272 24.184 5.568 24.072C4.864 23.976 4.2 23.824 3.576 23.616C2.952 23.392 2.392 23.12 1.896 22.8C1.608 22.608 1.408 22.376 1.296 22.104C1.184 21.832 1.144 21.568 1.176 21.312C1.224 21.04 1.328 20.808 1.488 20.616C1.664 20.408 1.88 20.28 2.136 20.232C2.392 20.184 2.672 20.256 2.976 20.448C3.68 20.864 4.424 21.168 5.208 21.36C5.992 21.552 6.816 21.648 7.68 21.648C8.944 21.648 9.864 21.44 10.44 21.024C11.016 20.592 11.304 20.04 11.304 19.368C11.304 18.808 11.096 18.368 10.68 18.048C10.28 17.728 9.584 17.464 8.592 17.256L5.952 16.704C4.432 16.384 3.296 15.848 2.544 15.096C1.808 14.328 1.44 13.32 1.44 12.072C1.44 11.288 1.6 10.576 1.92 9.936C2.24 9.296 2.688 8.744 3.264 8.28C3.856 7.816 4.552 7.464 5.352 7.224C6.168 6.968 7.064 6.84 8.04 6.84C9 6.84 9.912 6.96 10.776 7.2C11.64 7.44 12.416 7.792 13.104 8.256C13.36 8.432 13.528 8.648 13.608 8.904C13.704 9.16 13.728 9.416 13.68 9.672C13.632 9.912 13.52 10.12 13.344 10.296C13.168 10.472 12.944 10.576 12.672 10.608C12.416 10.64 12.12 10.56 11.784 10.368C11.192 10.032 10.592 9.792 9.984 9.648C9.376 9.504 8.72 9.432 8.016 9.432C7.28 9.432 6.648 9.536 6.12 9.744C5.592 9.952 5.184 10.248 4.896 10.632C4.624 11 4.488 11.44 4.488 11.952C4.488 12.528 4.68 12.992 5.064 13.344C5.448 13.68 6.104 13.944 7.032 14.136L9.648 14.688C11.232 15.024 12.408 15.552 13.176 16.272C13.96 16.992 14.352 17.952 14.352 19.152C14.352 19.92 14.192 20.616 13.872 21.24C13.568 21.864 13.12 22.4 12.528 22.848C11.952 23.296 11.256 23.64 10.44 23.88C9.624 24.12 8.704 24.24 7.68 24.24ZM20.9486 24.24C19.9726 24.24 19.1646 24.064 18.5246 23.712C17.8846 23.344 17.4046 22.8 17.0846 22.08C16.7806 21.36 16.6286 20.464 16.6286 19.392V13.584C16.6286 13.072 16.7566 12.696 17.0126 12.456C17.2686 12.2 17.6366 12.072 18.1166 12.072C18.5966 12.072 18.9646 12.2 19.2206 12.456C19.4926 12.696 19.6286 13.072 19.6286 13.584V19.44C19.6286 20.272 19.7966 20.888 20.1326 21.288C20.4686 21.688 21.0046 21.888 21.7406 21.888C22.5406 21.888 23.1966 21.616 23.7086 21.072C24.2206 20.512 24.4766 19.776 24.4766 18.864V13.584C24.4766 13.072 24.6046 12.696 24.8606 12.456C25.1166 12.2 25.4846 12.072 25.9646 12.072C26.4446 12.072 26.8126 12.2 27.0686 12.456C27.3406 12.696 27.4766 13.072 27.4766 13.584V22.656C27.4766 23.68 26.9886 24.192 26.0126 24.192C25.5486 24.192 25.1886 24.064 24.9326 23.808C24.6766 23.536 24.5486 23.152 24.5486 22.656V20.832L24.8846 21.552C24.5486 22.416 24.0366 23.08 23.3486 23.544C22.6766 24.008 21.8766 24.24 20.9486 24.24ZM34.8951 24.24C34.2071 24.24 33.4791 24.168 32.7111 24.024C31.9431 23.88 31.2551 23.632 30.6471 23.28C30.3911 23.12 30.2071 22.936 30.0951 22.728C29.9991 22.504 29.9591 22.288 29.9751 22.08C30.0071 21.856 30.0871 21.664 30.2151 21.504C30.3591 21.344 30.5351 21.24 30.7431 21.192C30.9671 21.144 31.2071 21.184 31.4631 21.312C32.1031 21.616 32.7031 21.832 33.2631 21.96C33.8231 22.072 34.3751 22.128 34.9191 22.128C35.6871 22.128 36.2551 22 36.6231 21.744C37.0071 21.472 37.1991 21.12 37.1991 20.688C37.1991 20.32 37.0711 20.04 36.8151 19.848C36.5751 19.64 36.2071 19.488 35.7111 19.392L33.3111 18.936C32.3191 18.744 31.5591 18.384 31.0311 17.856C30.5191 17.312 30.2631 16.616 30.2631 15.768C30.2631 15 30.4711 14.336 30.8871 13.776C31.3191 13.216 31.9111 12.784 32.6631 12.48C33.4151 12.176 34.2791 12.024 35.2551 12.024C35.9591 12.024 36.6151 12.104 37.2231 12.264C37.8471 12.408 38.4471 12.64 39.0231 12.96C39.2631 13.088 39.4231 13.256 39.5031 13.464C39.5991 13.672 39.6231 13.888 39.5751 14.112C39.5271 14.32 39.4311 14.512 39.2871 14.688C39.1431 14.848 38.9591 14.952 38.7351 15C38.5271 15.032 38.2871 14.984 38.0151 14.856C37.5191 14.6 37.0391 14.416 36.5751 14.304C36.1271 14.192 35.6951 14.136 35.2791 14.136C34.4951 14.136 33.9111 14.272 33.5271 14.544C33.1591 14.816 32.9751 15.176 32.9751 15.624C32.9751 15.96 33.0871 16.24 33.3111 16.464C33.5351 16.688 33.8791 16.84 34.3431 16.92L36.7431 17.376C37.7831 17.568 38.5671 17.92 39.0951 18.432C39.6391 18.944 39.9111 19.632 39.9111 20.496C39.9111 21.664 39.4551 22.584 38.5431 23.256C37.6311 23.912 36.4151 24.24 34.8951 24.24ZM43.8058 24.192C43.3258 24.192 42.9578 24.064 42.7018 23.808C42.4458 23.536 42.3178 23.152 42.3178 22.656V8.4C42.3178 7.904 42.4458 7.528 42.7018 7.272C42.9578 7.016 43.3258 6.888 43.8058 6.888C44.2858 6.888 44.6538 7.016 44.9098 7.272C45.1818 7.528 45.3178 7.904 45.3178 8.4V14.616H44.9818C45.3338 13.768 45.8778 13.128 46.6138 12.696C47.3658 12.248 48.2138 12.024 49.1578 12.024C50.1018 12.024 50.8778 12.2 51.4858 12.552C52.0938 12.904 52.5498 13.44 52.8538 14.16C53.1578 14.864 53.3098 15.76 53.3098 16.848V22.656C53.3098 23.152 53.1818 23.536 52.9258 23.808C52.6698 24.064 52.3018 24.192 51.8218 24.192C51.3418 24.192 50.9658 24.064 50.6938 23.808C50.4378 23.536 50.3098 23.152 50.3098 22.656V16.992C50.3098 16.08 50.1338 15.416 49.7818 15C49.4458 14.584 48.9178 14.376 48.1978 14.376C47.3178 14.376 46.6138 14.656 46.0858 15.216C45.5738 15.76 45.3178 16.488 45.3178 17.4V22.656C45.3178 23.68 44.8138 24.192 43.8058 24.192ZM57.8449 24.168C57.3649 24.168 56.9969 24.024 56.7409 23.736C56.4849 23.448 56.3569 23.048 56.3569 22.536V13.728C56.3569 13.2 56.4849 12.8 56.7409 12.528C56.9969 12.24 57.3649 12.096 57.8449 12.096C58.3249 12.096 58.6929 12.24 58.9489 12.528C59.2209 12.8 59.3569 13.2 59.3569 13.728V22.536C59.3569 23.048 59.2289 23.448 58.9729 23.736C58.7169 24.024 58.3409 24.168 57.8449 24.168ZM57.8449 9.864C57.2849 9.864 56.8449 9.728 56.5249 9.456C56.2209 9.168 56.0689 8.776 56.0689 8.28C56.0689 7.768 56.2209 7.376 56.5249 7.104C56.8449 6.832 57.2849 6.696 57.8449 6.696C58.4209 6.696 58.8609 6.832 59.1649 7.104C59.4689 7.376 59.6209 7.768 59.6209 8.28C59.6209 8.776 59.4689 9.168 59.1649 9.456C58.8609 9.728 58.4209 9.864 57.8449 9.864Z" fill="#232323"/>
<path d="M87.8875 16.17C87.8875 16.17 77.3125 17.1131 77.3613 17.8331C77.41 18.5531 77.5356 21.1837 78.1806 21.9544C78.8256 22.725 81.2594 24.2381 83.0969 25.2056C84.9344 26.1731 88.285 27.8119 90.1469 27.7631C92.0088 27.7144 95.3856 24.7594 95.5338 23.9906C95.6819 23.2219 95.485 20.4656 95.485 20.4656L87.8875 16.17Z" fill="#C9CABB"/>
<path d="M84.3625 10.0125L81.1112 11.13C81.1112 11.13 81.1937 12.0806 81.3587 12.7181C81.5575 13.4869 82.0281 15.3 83.6181 15.9694C85.2062 16.6388 93.895 18.5756 94.4162 18.4275C94.9375 18.2794 96.5518 16.9631 97.1462 16.4663C97.7425 15.9694 91.3862 9.59064 91.3862 9.59064L84.3625 10.0125Z" fill="#C9CABB"/>
<path d="M85.7031 9.76501L81.955 10.5338C81.955 10.5338 82.4012 14.0831 83.1719 14.655C83.9425 15.2269 93.2012 17.5594 93.7712 17.4844C94.3431 17.4094 96.4525 15.8456 96.4525 15.8456C96.4525 15.8456 97.0244 13.86 96.9981 13.785C96.9737 13.7119 85.7031 9.76501 85.7031 9.76501ZM78.2819 18.0806C78.2819 18.0806 78.43 20.7619 78.8031 21.2325C79.1762 21.705 81.2106 23.3175 83.8919 24.6094C86.5731 25.9013 89.155 26.6944 90.1975 26.7188C91.24 26.7431 94.4181 24.2363 94.6656 23.7394C94.9131 23.2425 94.3919 20.4375 94.3919 20.4375L78.2819 18.0806Z" fill="white"/>
<path d="M80.6388 11.9231C81.4882 12.3112 82.0544 10.6069 84.6607 10.5825C87.2669 10.5581 89.6257 11.9475 91.2644 12.7669C92.9032 13.5862 96.2782 16.3162 97.2963 16.6144C98.3144 16.9125 99.2575 15.8944 99.2332 14.5294C99.2088 13.1644 98.6369 9.48935 94.9132 7.10623C91.1894 4.7231 86.3819 4.89373 83.5019 6.2831C80.6125 7.68185 79.0432 11.1937 80.6388 11.9231Z" fill="#FF6110"/>
<path d="M83.0182 12.0656C83.0576 12.3563 83.4551 12.3938 83.8732 12.3244C84.1807 12.2738 84.5894 12.1163 84.5294 11.7675C84.4863 11.5106 84.0026 11.4394 83.6444 11.52C83.2863 11.6006 82.9788 11.7769 83.0182 12.0656ZM90.0532 13.9819C89.9951 14.3269 90.4207 14.4581 90.8782 14.5088C91.3357 14.5575 91.6732 14.5481 91.7426 14.22C91.8119 13.8919 91.3451 13.7325 90.9982 13.6931C90.6513 13.6538 90.1113 13.6256 90.0532 13.9819ZM93.0438 15.0956C92.8301 15.2813 92.9144 15.5719 93.3326 15.9506C93.7507 16.3275 94.0282 16.3275 94.1876 16.1494C94.3469 15.9713 94.0882 15.5531 93.8501 15.3338C93.6101 15.1163 93.2707 14.8969 93.0438 15.0956ZM79.1426 20.4713C78.8876 20.7713 79.1332 21.1275 79.5701 21.495C80.0069 21.8625 80.3707 22.2075 80.6426 21.9413C81.0101 21.5831 80.4532 21.0863 80.1457 20.8181C79.8382 20.55 79.4219 20.1431 79.1426 20.4713ZM80.9126 20.55C80.7813 20.7919 80.9294 21.0506 81.3794 21.2756C81.8163 21.495 82.0544 21.4838 82.2044 21.2456C82.3544 21.0075 82.0057 20.6794 81.6682 20.5294C81.3288 20.3813 81.0401 20.3119 80.9126 20.55ZM81.2894 22.5019C81.2726 22.7831 81.3738 23.0044 82.2307 23.0869C83.0876 23.1713 83.2488 22.9088 83.2563 22.6894C83.2676 22.3763 82.9638 22.1981 82.3357 22.155C81.7076 22.1138 81.3101 22.1456 81.2894 22.5019Z" fill="#D4D3D4"/>
<path d="M81.8838 11.4788C81.7844 10.95 81.6681 10.2356 81.8331 9.37126C82.0956 7.99314 83.0988 6.70876 84.8163 5.77689C85.5813 5.52751 86.4831 5.37939 87.1994 5.31564C87.4694 5.29126 87.7131 5.28001 87.9138 5.27814C87.5031 5.41126 86.6256 5.61564 85.7594 6.02064C83.9219 6.87939 82.855 8.16564 82.6113 9.44626C82.495 10.0575 82.5175 10.6275 82.5775 11.0644C82.3338 11.2013 82.0825 11.3419 81.8838 11.4788ZM86.0575 10.6969C86.0519 10.0556 86.185 9.16314 86.8319 8.41876C87.8988 7.19064 89.5938 6.56251 90.6794 6.27189C91.2513 6.11814 91.9131 6.02439 92.5581 5.97001C92.8488 6.06939 93.3738 6.25689 94.015 6.59064C93.1919 6.57939 92.1325 6.62814 91.2456 6.86626C89.5394 7.32564 88.1256 8.07939 87.4413 8.86689C86.8881 9.50251 86.8038 10.3163 86.8244 10.8619C86.5075 10.7869 86.3144 10.7456 86.0575 10.6969ZM89.7363 11.9925C89.9313 11.4281 90.2988 10.7156 90.9963 10.1419C92.8094 8.65314 94.78 8.48251 95.3931 8.41876C95.7738 8.37939 96.1488 8.36064 96.4881 8.35689C96.7206 8.58189 97.0075 8.88751 97.1725 9.10126C96.7563 9.08251 96.205 9.08064 95.6388 9.14251C95.2394 9.18564 93.0606 9.46126 91.5531 10.6988C90.9419 11.2013 90.6138 11.8519 90.4394 12.3488C90.1956 12.2288 90.0288 12.1369 89.7363 11.9925ZM93.0644 13.8806C93.3456 13.4644 93.8425 12.8494 94.5869 12.3675C95.8319 11.5594 96.97 11.2838 98.3669 11.2838C98.41 11.2838 98.4531 11.2838 98.4963 11.2856C98.6331 11.5875 98.725 11.8688 98.7888 12.0544C98.6575 12.0413 98.5169 12.0338 98.3669 12.0338C97.1238 12.0338 96.115 12.3075 94.9994 13.0313C94.3638 13.4438 93.9306 13.9669 93.6888 14.3119C93.3888 14.1075 93.2031 13.98 93.0644 13.8806Z" fill="#FE8E6E"/>
<path d="M81.6943 8.24627C81.8781 8.34565 81.8106 8.81815 81.5781 9.17627C81.3456 9.53252 81.1056 9.81565 80.8393 9.69002C80.5731 9.56627 80.7568 8.99252 80.9218 8.72815C81.0887 8.4619 81.3887 8.08127 81.6943 8.24627ZM85.3299 7.57502C85.6937 7.99127 84.9981 8.28002 84.9568 8.67002C84.9156 9.06002 85.2437 8.8969 85.2231 9.3094C85.1987 9.7819 83.4887 10.1138 83.2562 9.26815C83.0218 8.42065 84.8237 6.99377 85.3299 7.57502ZM89.1606 8.56502C88.8849 8.2819 88.1893 8.52377 87.7824 8.95502C87.3756 9.38627 87.2687 10.1325 88.0056 10.4063C88.7443 10.68 88.9187 10.2731 88.8681 10.0988C88.8362 9.9844 88.7443 9.71627 88.8512 9.5269C88.9618 9.33752 89.4924 8.90627 89.1606 8.56502Z" fill="#F6FFFE"/>
<path d="M83.6106 15.3581C83.6106 15.3581 76.945 16.1306 76.8119 16.7438C76.6544 17.4713 76.7763 18.0094 77.0706 18.3694C77.5806 18.9937 79.6975 19.215 82.5456 20.5556C85.1388 21.7762 86.1775 22.4344 87.7019 23.2069C89.2263 23.9794 90.3531 24.2925 91.4594 24.0206C92.5656 23.7487 93.8388 23.2894 94.9038 22.4344C95.7081 21.7875 95.9988 20.8744 95.9256 19.95C95.8638 19.1625 95.4456 18.3225 94.9244 17.9044C94.4013 17.4862 83.6313 15.2737 83.6106 15.3581Z" fill="#CC1935"/>
<path d="M81.9193 13.3744C78.0999 14.0831 76.7293 16.32 76.8212 16.8169C76.8793 17.13 77.6781 16.9744 80.7943 18.0713C85.3037 19.6575 88.8981 21.5475 90.1712 21.7575C91.9224 22.0444 93.7093 21.0413 94.4087 20.5256C95.5393 19.6913 95.6743 18.8231 95.2581 18.2606C94.8381 17.6963 92.3987 15.375 88.7668 14.0831C85.8718 13.0556 83.9949 12.9881 81.9193 13.3744Z" fill="#FF605F"/>
<path d="M79.2175 14.8369C78.7825 14.7881 77.2112 15.7725 77.7662 16.6575C78.3231 17.5444 80.9406 17.415 80.9968 16.7625C81.0625 16.0106 79.5306 16.0125 79.3131 15.69C79.0956 15.3694 79.7293 14.895 79.2175 14.8369Z" fill="#F9FFFF"/>
</svg>
