<svg width="84" height="84" viewBox="0 0 84 84" fill="none" xmlns="http://www.w3.org/2000/svg">
<path d="M22.6731 46.9208C22.6731 46.9208 16.8004 43.0828 16.7315 36.7327C16.6626 30.3827 30.2796 35.3838 32.2216 40.3414C32.2216 40.3414 34.3921 34.6525 39.3497 32.7105C39.3497 32.7105 37.4067 27.7531 37.887 24.4855C37.887 24.4855 48.4642 18.362 54.405 27.9114C54.405 27.9114 66.0793 27.9571 68.7524 37.0262L66.0336 39.6314L69.1437 41.4652C69.1437 41.4652 70.2417 48.3595 59.2287 53.5346C59.2287 53.5346 58.1987 61.176 49.609 60.5818L49.7229 55.2596C49.7229 55.2596 43.7373 57.3834 33.8671 49.5942C33.8671 49.5942 32.4277 59.3946 19.7257 59.5327C19.7257 59.5327 18.0825 51.5603 22.6733 46.9218L22.6731 46.9208Z" fill="#92D3F5"/>
<path d="M46.801 35.9845C46.801 35.9845 39.817 41.6386 47.8837 47.0133L46.801 35.9845Z" fill="#61B2E4"/>
<path d="M22.6731 46.9208C22.6731 46.9208 16.8004 43.0828 16.7315 36.7327C16.6626 30.3827 30.2796 35.3838 32.2216 40.3414C32.2216 40.3414 34.3921 34.6525 39.3497 32.7105C39.3497 32.7105 37.4067 27.7531 37.887 24.4855C37.887 24.4855 48.4642 18.362 54.405 27.9114C54.405 27.9114 66.0793 27.9571 68.7524 37.0262L66.0336 39.6314L69.1437 41.4652C69.1437 41.4652 70.2417 48.3595 59.2287 53.5346C59.2287 53.5346 58.1987 61.176 49.609 60.5818L49.7229 55.2596C49.7229 55.2596 43.7373 57.3834 33.8671 49.5942C33.8671 49.5942 32.4277 59.3946 19.7257 59.5327C19.7257 59.5327 18.0825 51.5603 22.6733 46.9218L22.6731 46.9208Z" stroke="black" stroke-width="2" stroke-miterlimit="10" stroke-linecap="round" stroke-linejoin="round"/>
<path d="M46.0474 36.2018C46.0474 36.2018 40.8404 41.1905 46.9888 47.207" stroke="black" stroke-width="2" stroke-miterlimit="10" stroke-linecap="round" stroke-linejoin="round"/>
</svg>
