<svg width="230" height="232" viewBox="0 0 230 232" fill="none" xmlns="http://www.w3.org/2000/svg">
<path d="M140.752 168.72C136.369 157.765 130.247 138.128 138.945 131.697C147.643 125.266 159.186 136.459 159.186 136.459C161.096 138.196 163.659 139.028 166.225 138.749C167.888 138.486 169.399 137.624 170.471 136.325C171.544 135.027 172.104 133.381 172.048 131.697C172.045 130.322 171.597 128.984 170.771 127.884C167.549 123.382 172.961 117.855 178.626 118.688C179.109 118.752 179.591 118.768 180.086 118.836C182.208 119.201 184.391 118.873 186.311 117.899C188.232 116.925 189.787 115.358 190.745 113.43C193.134 108.649 190.581 104.074 188.147 99.7488L187.909 99.2922C185.31 94.0886 184.248 88.2517 184.848 82.4659C184.864 82.2601 184.913 82.0672 184.913 81.8614C184.913 79.7295 184.066 77.6848 182.558 76.1773C181.051 74.6698 179.006 73.8229 176.874 73.8229C174.742 73.8229 172.697 74.6698 171.19 76.1773C169.682 77.6848 168.835 79.7295 168.835 81.8614C168.797 93.4209 159.189 115.623 146.327 111.614C133.466 107.604 143.112 80.2537 152.758 67.392C158.318 60.5022 161.679 52.1001 162.405 43.2764C162.405 41.1444 161.558 39.0998 160.05 37.5922C158.543 36.0847 156.498 35.2378 154.366 35.2378C152.234 35.2378 150.189 36.0847 148.682 37.5922C147.174 39.0998 146.327 41.1444 146.327 43.2764C146.327 43.2764 146.327 57.7458 136.681 57.7458C127.035 57.7458 127.035 44.8841 127.035 44.8841C127.035 42.3257 126.019 39.8721 124.21 38.0631C122.401 36.2541 119.947 35.2378 117.389 35.2378C114.83 35.2378 112.377 36.2541 110.568 38.0631C108.759 39.8721 107.742 42.3257 107.742 44.8841C107.742 60.9612 123.82 73.8229 127.035 97.9611C130.25 122.099 116.72 129.189 110.784 128.495C104.225 127.723 98.0929 115.62 104.524 102.758C108.362 94.7612 109.491 85.7311 107.739 77.0351C107.739 75.3295 107.062 73.6938 105.856 72.4878C104.65 71.2818 103.014 70.6042 101.308 70.6042C99.6028 70.6042 97.9671 71.2818 96.7611 72.4878C95.555 73.6938 94.8775 75.3295 94.8775 77.0351C94.8775 93.1122 91.6621 96.3276 85.1187 96.3276C78.5753 96.3276 75.585 80.2505 75.585 80.2505C75.585 77.6922 74.5687 75.2386 72.7596 73.4296C70.9506 71.6205 68.4971 70.6042 65.9387 70.6042C63.3804 70.6042 60.9268 71.6205 59.1178 73.4296C57.3087 75.2386 56.2924 77.6922 56.2924 80.2505C56.2924 102.758 72.3695 112.405 91.5335 131.697C102.678 142.064 106.132 154.717 98.3566 169.279C96.7167 172.353 90.511 184.752 90.511 184.752C99.1701 191.327 135.569 188.241 144.382 182.392C144.382 182.392 143.266 175.006 140.752 168.72Z" fill="#EA5A47"/>
<path d="M128.9 151.521C127.771 160.222 132.81 179.662 135.877 183.91L146.913 180.257C146.913 180.257 144.742 174.366 142.926 169.209C140.678 162.81 130.247 138.128 138.945 131.697C139.704 131.148 140.537 130.707 141.421 130.389C135.791 131.225 130.382 140.099 128.9 151.521Z" fill="#D22F27"/>
<path d="M101.267 188.302C101.267 195.173 92.2923 197.925 81.2216 197.925C70.1509 197.925 61.1767 195.173 61.1767 188.302C61.1767 181.43 70.1509 175.858 81.2216 175.858C92.2923 175.858 101.267 181.43 101.267 188.302ZM170.643 188.347C170.643 195.446 161.369 198.292 149.932 198.292C138.495 198.292 129.218 195.446 129.218 188.347C129.218 181.247 138.492 175.491 149.932 175.491C161.372 175.491 170.643 181.247 170.643 188.347Z" fill="#9B9B9A"/>
<path d="M82.6107 100.241C84.4787 100.103 86.2755 99.4659 87.8138 98.397C89.3521 97.3281 90.5755 95.8662 91.3566 94.1637C90.5296 94.9458 89.5457 95.5432 88.4703 95.9163C87.3949 96.2893 86.2524 96.4296 85.1187 96.3277C78.5721 96.3277 75.585 80.2505 75.585 80.2505C75.579 78.1616 74.8889 76.1321 73.6203 74.4724C72.0956 77.4543 71.3125 80.76 71.3374 84.109C71.3374 93.0158 76.3856 100.241 82.6107 100.241ZM168.102 121.903C168.141 123.826 168.913 125.659 170.263 127.025C168.231 122.713 173.318 117.906 178.63 118.691C179.112 118.755 179.594 118.768 180.086 118.836C181.533 119.056 183.01 118.971 184.422 118.585C185.834 118.199 187.149 117.521 188.282 116.594C185.885 114.311 182.682 113.07 179.372 113.141C173.147 113.141 168.102 117.064 168.102 121.903ZM184.848 82.4627C184.864 82.2602 184.913 82.0672 184.913 81.8582C184.91 80.4918 184.558 79.1487 183.89 77.9566C183.222 76.7646 182.26 75.7633 181.096 75.048C179.043 77.9482 177.876 81.3818 177.736 84.9322C177.736 91.1572 182.52 93.6621 187.253 97.9675C187.276 97.9868 187.302 97.9932 187.321 98.0125C185.187 93.1253 184.336 87.7709 184.848 82.4627ZM133.209 95.6749C133.209 107.479 138.424 115.62 146.672 115.62C149.087 115.464 151.417 114.673 153.428 113.326C155.439 111.979 157.058 110.125 158.122 107.951C156.701 109.613 154.84 110.838 152.752 111.486C150.664 112.134 148.436 112.177 146.324 111.611C133.463 107.604 143.109 80.2505 152.755 67.3888C154.015 65.7078 155.176 63.9557 156.234 62.1413C148.511 67.9901 133.209 83.8775 133.209 95.6781V95.6749ZM132.482 61.4918C134.802 61.3833 137.047 60.6359 138.968 59.3319C140.89 58.028 142.414 56.2183 143.373 54.1027C142.663 55.2332 141.675 56.1619 140.502 56.7994C139.329 57.4369 138.013 57.7617 136.678 57.7426C127.032 57.7426 127.032 44.8809 127.032 44.8809C127.027 43.1014 126.529 41.3581 125.592 39.8451C124.656 38.3321 123.317 37.1089 121.726 36.3118C120.237 39.0939 119.469 42.2046 119.492 45.36C119.492 54.2699 125.305 61.4918 132.482 61.4918ZM106.627 131.755C109.929 132.044 113.239 131.287 116.088 129.592C118.936 127.897 121.18 125.349 122.501 122.308C121.204 124.22 119.457 125.783 117.414 126.862C115.371 127.94 113.094 128.501 110.784 128.495C104.225 127.723 98.0929 115.62 104.524 102.758C106.421 98.9225 107.659 94.7939 108.183 90.5463C103.193 97.1926 95.3566 106.713 95.3566 115.62C95.3566 124.527 100.456 130.948 106.627 131.755Z" fill="#D22F27"/>
<path d="M141.099 195.492C141.099 203.334 130.861 206.472 118.228 206.472C105.595 206.472 95.3566 203.334 95.3566 195.492C95.3566 187.649 105.598 181.295 118.228 181.295C130.858 181.295 141.099 187.652 141.099 195.492Z" fill="#9B9B9A"/>
<path d="M131.434 196.633C131.434 203.659 123.357 206.472 113.395 206.472C103.434 206.472 95.3566 203.659 95.3566 196.633C95.3566 189.607 103.431 183.909 113.395 183.909C123.36 183.909 131.434 189.604 131.434 196.633ZM88.1541 186.421C88.1541 190.987 82.1155 192.819 74.6654 192.819C67.2152 192.819 61.1767 190.987 61.1767 186.421C61.1767 181.855 67.2152 178.147 74.6654 178.147C82.1155 178.147 88.1541 181.852 88.1541 186.421Z" fill="#D0CFCE"/>
<path d="M139.893 170.282C139.893 170.282 130.247 138.128 138.945 131.697C147.643 125.266 159.186 136.459 159.186 136.459C161.099 138.196 163.659 139.028 166.225 138.749C167.888 138.486 169.399 137.624 170.471 136.325C171.544 135.027 172.104 133.381 172.048 131.697C172.045 130.322 171.597 128.984 170.771 127.884C167.549 123.382 172.961 117.855 178.63 118.688C179.112 118.752 179.594 118.768 180.086 118.836C182.208 119.201 184.391 118.873 186.311 117.899C188.232 116.925 189.787 115.358 190.745 113.43C193.134 108.649 190.581 104.074 188.147 99.7488L187.909 99.2922C185.31 94.0886 184.248 88.2517 184.848 82.4659C184.864 82.2601 184.913 82.0672 184.913 81.8614C184.913 79.7295 184.066 77.6848 182.558 76.1773C181.051 74.6698 179.006 73.8229 176.874 73.8229C174.742 73.8229 172.697 74.6698 171.19 76.1773C169.682 77.6848 168.835 79.7295 168.835 81.8614C168.797 93.4209 159.189 115.623 146.328 111.614C133.466 107.604 143.112 80.2537 152.758 67.392C158.318 60.5022 161.679 52.1001 162.405 43.2764C162.405 41.1444 161.558 39.0998 160.05 37.5922C158.543 36.0847 156.498 35.2378 154.366 35.2378C152.234 35.2378 150.189 36.0847 148.682 37.5922C147.174 39.0998 146.328 41.1444 146.328 43.2764C146.328 43.2764 146.328 57.7458 136.681 57.7458C127.035 57.7458 127.035 44.8841 127.035 44.8841C127.035 42.3257 126.019 39.8721 124.21 38.0631C122.401 36.2541 119.947 35.2378 117.389 35.2378C114.83 35.2378 112.377 36.2541 110.568 38.0631C108.759 39.8721 107.742 42.3257 107.742 44.8841C107.742 60.9612 123.82 73.8229 127.035 97.9611C130.25 122.099 116.72 129.189 110.784 128.495C104.225 127.723 98.0929 115.62 104.524 102.758C108.362 94.7612 109.491 85.7311 107.739 77.0351C107.739 75.3295 107.062 73.6938 105.856 72.4878C104.65 71.2818 103.014 70.6042 101.308 70.6042C99.6028 70.6042 97.9671 71.2818 96.7611 72.4878C95.555 73.6938 94.8775 75.3295 94.8775 77.0351C94.8775 93.1122 91.6621 96.3276 85.1187 96.3276C78.5753 96.3276 75.585 80.2505 75.585 80.2505C75.585 77.6922 74.5687 75.2386 72.7596 73.4296C70.9506 71.6205 68.4971 70.6042 65.9387 70.6042C63.3804 70.6042 60.9268 71.6205 59.1178 73.4296C57.3087 75.2386 56.2924 77.6922 56.2924 80.2505C56.2924 102.758 72.3695 112.405 91.5335 131.697C110.697 150.99 101.389 170.154 101.389 170.154M143.231 179.276C143.231 179.276 147.07 177.922 151.803 177.922C160.807 177.922 168.102 182.45 168.102 188.038C168.102 193.626 160.803 195.861 151.803 195.861M83.6171 195.575C81.8776 195.774 80.1252 195.871 78.376 195.864C69.3728 195.864 62.077 193.626 62.077 188.038C62.077 182.45 69.376 177.922 78.376 177.922C81.7432 177.885 85.0787 178.576 88.1541 179.948M141.099 195.491C141.099 203.334 130.861 206.472 118.228 206.472C105.595 206.472 95.3566 203.334 95.3566 195.491C95.3566 187.649 105.598 181.295 118.228 181.295C130.858 181.295 141.099 187.652 141.099 195.491Z" stroke="black" stroke-width="6.43085" stroke-linecap="round" stroke-linejoin="round"/>
</svg>
