<svg width="18" height="18" viewBox="0 0 18 18" fill="none" xmlns="http://www.w3.org/2000/svg">
<path d="M9.5436 4.5455C9.49529 4.44209 9.41848 4.3546 9.32219 4.29331C9.22591 4.23202 9.11414 4.19946 9 4.19946C8.88586 4.19946 8.77409 4.23202 8.6778 4.29331C8.58152 4.3546 8.50471 4.44209 8.4564 4.5455L7.296 7.0199L4.7112 7.4159C4.6022 7.43251 4.49989 7.47883 4.41549 7.54978C4.3311 7.62074 4.26788 7.71357 4.2328 7.8181C4.19771 7.92262 4.1921 8.03479 4.21658 8.1423C4.24107 8.2498 4.2947 8.34848 4.3716 8.4275L6.2604 10.3631L5.8128 13.1039C5.79459 13.2151 5.80808 13.3292 5.85173 13.4332C5.89537 13.5371 5.96741 13.6266 6.05959 13.6915C6.15176 13.7564 6.26035 13.794 6.37291 13.8C6.48546 13.806 6.59743 13.7802 6.696 13.7255L9 12.4499L11.3052 13.7255C11.4039 13.7803 11.516 13.8061 11.6287 13.8001C11.7413 13.794 11.85 13.7563 11.9423 13.6913C12.0345 13.6263 12.1065 13.5365 12.1501 13.4324C12.1936 13.3283 12.2069 13.214 12.1884 13.1027L11.7408 10.3631L13.6296 8.4275C13.7068 8.34851 13.7608 8.24974 13.7854 8.14207C13.8101 8.03439 13.8046 7.92199 13.7695 7.81725C13.7344 7.71252 13.671 7.61951 13.5864 7.54848C13.5018 7.47745 13.3992 7.43115 13.29 7.4147L10.7052 7.0199L9.5436 4.5455Z" fill="#FCBA40"/>
</svg>
